# AST/ASF file generated using VICON BodyLanguage
# -----------------------------------------------
:version 1.10
:name VICON
:units
  mass 1.0
  length 0.45
  angle deg
:documentation
   .ast/.asf automatically generated from VICON data using
   VICON BodyBuilder and BodyLanguage model FoxedUp or BRILLIANT.MOD
:root
   order TX TY TZ RX RY RZ
   axis XYZ
   position 0 0 0  
   orientation 0 0 0 
:bonedata
  begin
     id 1 
     name lhipjoint
     direction 0.635376 -0.686425 0.353719 
     length 2.47244 
     axis 0 0 0  XYZ
  end
  begin
     id 2 
     name lfemur
     direction 0.34202 -0.939693 0  
     length 7.25268  
     axis 0 0 20  XYZ
    dof rx ry rz
    limits (-160.0 20.0)
           (-70.0 70.0)
           (-60.0 70.0)
  end
  begin
     id 3 
     name ltibia
     direction 0.34202 -0.939693 0   
     length 7.6767   
     axis 0 0 20   XYZ
    dof rx
    limits (-10.0 170.0)
  end
  begin
     id 4 
     name lfoot
     direction 0.0803374 -0.220725 0.972022   
     length 2.22945   
     axis -90 7.62852e-016 20   XYZ
    dof rx rz
    limits (-45.0 90.0)
           (-70.0 20.0)
  end
  begin
     id 5 
     name ltoes
     direction 1.53579e-011 -4.21994e-011 1   
     length 1.11848   
     axis -90 7.62852e-016 20   XYZ
    dof rx
    limits (-90.0 20.0)
  end
  begin
     id 6 
     name rhipjoint
     direction -0.664428 -0.664335 0.342336   
     length 2.55466  
     axis 0 0 0  XYZ 
  end
  begin
     id 7 
     name rfemur
     direction -0.34202 -0.939693 0   
     length 6.83172   
     axis 0 0 -20   XYZ
    dof rx ry rz
    limits (-160.0 20.0)
           (-70.0 70.0)
           (-70.0 60.0)
  end
  begin
     id 8 
     name rtibia
     direction -0.34202 -0.939693 0   
     length 7.62692   
     axis 0 0 -20   XYZ
    dof rx
    limits (-10.0 170.0)
 end
 begin
     id 9 
     name rfoot
     direction -0.0949276 -0.260811 0.960711   
     length 2.19684  
     axis -90 -7.62852e-016 -20   XYZ
    dof rx rz
    limits (-45.0 90.0)
           (-20.0 70.0)
  end
  begin
     id 10 
     name rtoes
     direction -1.53543e-011 -4.2183e-011 1   
     length 1.09848   
     axis -90 -7.62852e-016 -20   XYZ
    dof rx
    limits (-90.0 20.0)
  end
  begin
     id 11 
     name lowerback
     direction 0.0118782 0.999815 -0.0151555   
     length 2.15772   
     axis 0 0 0   XYZ
    dof rx ry rz
    limits (-20.0 45.0)
           (-30.0 30.0)
           (-30.0 30.0)
  end
  begin
     id 12 
     name upperback
     direction 0.00130825 0.999065 0.0432113   
     length 2.14863   
     axis 0 0 0   XYZ
    dof rx ry rz
    limits (-20.0 45.0)
           (-30.0 30.0)
           (-30.0 30.0)
  end
  begin
     id 13 
     name thorax
     direction -0.00347005 0.998773 0.0494011   
     length 2.14936   
     axis 0 0 0   XYZ
    dof rx ry rz
    limits (-20.0 45.0)
           (-30.0 30.0)
           (-30.0 30.0)
  end
  begin
     id 14 
     name lowerneck
     direction -0.0262159 0.99424 0.103921   
     length 1.69373   
     axis 0 0 0   XYZ
    dof rx ry rz
    limits (-20.0 45.0)
           (-30.0 30.0)
           (-30.0 30.0)
  end
  begin
     id 15 
     name upperneck
     direction 0.0353511 0.977394 -0.20845   
     length 1.70857   
     axis 0 0 0   XYZ
    dof rx ry rz
    limits (-20.0 45.0)
           (-30.0 30.0)
           (-30.0 30.0)
  end
  begin
     id 16
     name head
     direction 0.0139214 0.996594 -0.0812836  
     length 1.72777  
     axis 0 0 0   XYZ
    dof rx ry rz
    limits (-20.0 45.0)
           (-30.0 30.0)
           (-30.0 30.0)
  end
  begin
     id 17 
     name lclavicle
     direction 0.841247 0.537205 -0.0609508  
     length 3.55371  
     axis 0 0 0   XYZ
    dof ry rz
    limits (-20.0 10.0)
           (0.0 20.0)
  end
  begin
     id 18 
     name lhumerus
     direction 1 -4.48964e-011 1.60116e-018   
     length 4.91377   
     axis -180 -30 -90   XYZ
    dof rx ry rz
    limits (-60.0 90.0)
           (-90.0 90.0)
           (-90.0 90.0)
  end
  begin
     id 19
     name lradius
     direction 1 -4.48989e-011 -8.93847e-027   
     length 3.00291   
     axis -180 -30 -90   XYZ
    dof rx
    limits (-10.0 170.0)
  end
  begin
     id 20
     name lwrist
     direction 1 -4.48932e-011 -7.31504e-027   
     length 1.50145   
     axis 5.74121e-015 90 90   XYZ
    dof ry
    limits (-180.0 0.0)
 end
  begin
     id 21 
     name lhand
     direction 1 -4.48971e-011 -1.46301e-026   
     length 0.450922   
     axis 9.33524e-015 90 90   XYZ
    dof rx rz
    limits (-90.0 90.0)
           (-45.0 45.0)
  end
  begin
     id 22 
     name lfingers
     direction 1 -4.49039e-011 -2.92602e-026   
     length 0.363545   
     axis 1.86705e-014 90 90   XYZ
    dof rx
    limits (0.0 90.0)
  end
  begin
     id 23
     name lthumb
     direction 0.707107 -6.34941e-011 0.707107   
     length 0.52198   
     axis -90 45 2.85299e-015   XYZ
    dof rx rz
    limits (-45.0 45.0)
           (-45.0 45.0)
  end
  begin
     id 24 
     name rclavicle
     direction -0.825079 0.56158 -0.0622297   
     length 3.39909  
     axis 0 0 0   XYZ 
    dof ry rz
    limits (-10.0 20.0)
           (-20.0 0.0)
  end
  begin
     id 25 
     name rhumerus
     direction -1 -4.48965e-011 1.61691e-027  
     length 4.86725   
     axis -180 30 90   XYZ
    dof rx ry rz
    limits (-90.0 60.0)
           (-90.0 90.0)
           (-90.0 90.0)
  end
  begin
     id 26 
     name rradius
     direction -1 -4.48964e-011 -2.25776e-027   
     length 3.17144   
     axis -180 30 90   XYZ
    dof rx
    limits (-10.0 170.0)
  end
  begin
     id 27 
     name rwrist
     direction -1 -4.48961e-011 -7.31504e-027   
     length 1.58572   
     axis 5.74121e-015 -90 -90   XYZ
    dof ry
    limits (-180.0 0.0)
  end
  begin
     id 28
     name rhand
     direction -1 -4.49013e-011 -1.46301e-026   
     length 0.419368   
     axis 9.33524e-015 -90 -90   XYZ
    dof rx rz
    limits (-90.0 90.0)
           (-45.0 45.0)
  end
  begin
     id 29
     name rfingers
     direction -1 -4.489e-011 -2.92602e-026   
     length 0.338105   
     axis 1.86705e-014 -90 -90   XYZ
    dof rx
    limits (0.0 90.0)
  end
  begin
     id 30
     name rthumb
     direction -0.707107 -6.35022e-011 0.707107   
     length 0.485453   
     axis -90 -45 -2.85299e-015   XYZ
    dof rx rz
    limits (-45.0 45.0)
           (-45.0 45.0)
  end
:hierarchy
  begin
    root lhipjoint rhipjoint lowerback
    lhipjoint lfemur
    lfemur ltibia
    ltibia lfoot
    lfoot ltoes
    rhipjoint rfemur
    rfemur rtibia
    rtibia rfoot
    rfoot rtoes
    lowerback upperback
    upperback thorax
    thorax lowerneck lclavicle rclavicle
    lowerneck upperneck
    upperneck head
    lclavicle lhumerus
    lhumerus lradius
    lradius lwrist
    lwrist lhand lthumb
    lhand lfingers
    rclavicle rhumerus
    rhumerus rradius
    rradius rwrist
    rwrist rhand rthumb
    rhand rfingers
  end

#!OML:ASF H:\Swim 2\Project 1\Capture day 1\Session 1\male.ASF
:FULLY-SPECIFIED
:DEGREES
1702
root 7.48068 8.87296 12.2373 84.0027 0.432956 180.757
lowerback 17.6656 3.97464 9.3567
upperback 0.573483 7.14436 1.11133
thorax -8.25927 3.04121 -5.73532
lowerneck -23.3294 -1.12464 -1.46704
upperneck 39.3097 1.81399 -10.2543
head 19.2272 -2.17794 -4.73511
rclavicle 9.54166e-015 1.72943e-014
rhumerus 30.1595 -39.6373 -85.5367
rradius 5.19224
rwrist 13.4373
rhand -4.41677 -18.7793
rfingers 7.12502
rthumb 21.3537 -47.6228
lclavicle 9.54166e-015 1.72943e-014
lhumerus -1109.29 -31.1701 1100.96
lradius 22.5722
lwrist 29.418
lhand 48.4307 39.8686
lfingers 7.12502
lthumb 68.8924 398.843
rfemur 17.9942 7.26033 22.3782
rtibia 24.3603
rfoot 0.844458 -7.59969
rtoes 25.6022
lfemur 20.9093 -3.20981 -29.5612
ltibia 29.0995
lfoot 20.3801 -1.6211
ltoes 54.3419
1703
root 7.48472 8.87908 12.2242 83.7935 0.622679 180.72
lowerback 17.8101 3.88781 9.33161
upperback 0.577868 7.03099 1.05764
thorax -8.34785 2.9786 -5.77064
lowerneck -23.0053 -0.926719 -0.882192
upperneck 39.1991 1.9116 -10.5105
head 19.0833 -2.09286 -4.92481
rclavicle -9.54166e-015 5.09883e-014
rhumerus 31.3588 -38.6122 -85.7929
rradius 4.8393
rwrist 13.8607
rhand -4.69889 -18.9206
rfingers 7.12502
rthumb 21.0827 -47.7945
lclavicle -9.54166e-015 5.09883e-014
lhumerus -1110.58 -31.8312 1102.46
lradius 22.3757
lwrist 29.2643
lhand 48.3545 39.8955
lfingers 7.12502
lthumb 68.8394 399.012
rfemur 17.4744 7.27155 22.5232
rtibia 24.0223
rfoot 0.853173 -8.01563
rtoes 25.1475
lfemur 21.7171 -3.08109 -29.666
ltibia 29.4792
lfoot 21.0258 -2.66547
ltoes 55.1659
1704
root 7.4901 8.88667 12.2155 83.6408 0.844608 180.692
lowerback 17.8867 3.65629 9.27091
upperback 0.558366 6.94369 0.997428
thorax -8.44072 3.03316 -5.81236
lowerneck -22.6413 -0.738477 -0.236832
upperneck 39.0455 1.99914 -10.841
head 18.9065 -2.01107 -5.15761
rclavicle -5.725e-014 4.37326e-015
rhumerus 32.4812 -37.6129 -86.0015
rradius 4.51971
rwrist 14.3153
rhand -4.86885 -19.0532
rfingers 7.12502
rthumb 20.9194 -47.9452
lclavicle -5.725e-014 4.37326e-015
lhumerus -1111.86 -32.4603 1103.94
lradius 22.1745
lwrist 29.0232
lhand 48.1812 39.858
lfingers 7.12502
lthumb 68.7184 399.294
rfemur 16.9791 7.26285 22.7011
rtibia 23.5962
rfoot 1.02876 -8.41754
rtoes 24.6907
lfemur 22.4506 -2.91379 -29.6906
ltibia 29.8742
lfoot 21.6778 -3.4774
ltoes 55.8586
1705
root 7.49699 8.89553 12.2106 83.5178 1.07572 180.681
lowerback 17.9313 3.56624 9.2411
upperback 0.516144 6.82066 0.932769
thorax -8.52658 2.96665 -5.84735
lowerneck -22.2311 -0.545177 0.462729
upperneck 38.8817 2.08067 -11.1936
head 18.7139 -1.92717 -5.40966
rclavicle 7.95139e-014 -3.27995e-015
rhumerus 33.538 -36.6406 -86.1617
rradius 4.2198
rwrist 14.8
rhand -4.9323 -19.1403
rfingers 7.12502
rthumb 20.8585 -48.039
lclavicle 7.95139e-014 -3.27995e-015
lhumerus -1113.15 -33.0731 1105.42
lradius 21.9684
lwrist 28.7294
lhand 47.9131 39.7765
lfingers 7.12502
lthumb 68.5299 399.699
rfemur 16.539 7.241 22.8964
rtibia 23.0974
rfoot 1.29259 -8.83418
rtoes 23.9988
lfemur 23.1287 -2.71564 -29.6615
ltibia 30.2818
lfoot 22.3106 -4.07237
ltoes 56.4335
1706
root 7.50566 8.90513 12.2072 83.3601 1.2846 180.694
lowerback 18.2788 3.66653 9.97312
upperback 0.30333 7.10913 0.292421
thorax -8.73991 3.03949 -7.05903
lowerneck -21.7455 -0.717604 1.29947
upperneck 38.9586 1.37409 -11.0391
head 18.5295 -2.04929 -5.61369
rclavicle 1.01778e-013 -1.71949e-014
rhumerus 34.0757 -37.1275 -86.3398
rradius 4.20755
rwrist 15.312
rhand -4.88844 -19.1745
rfingers 7.12502
rthumb 20.9006 -48.0685
lclavicle 1.01778e-013 -1.71949e-014
lhumerus -1113.25 -35.3112 1106.22
lradius 22.1029
lwrist 29.4054
lhand 47.3982 39.8626
lfingers 7.12502
lthumb 68.1634 400.696
rfemur 16.2239 7.2152 23.0896
rtibia 22.5438
rfoot 1.51909 -9.33038
rtoes 23.4288
lfemur 23.8098 -2.4844 -29.6122
ltibia 30.6953
lfoot 22.9057 -4.46104
ltoes 56.9293
1707
root 7.51619 8.91502 12.2045 83.1515 1.46237 180.734
lowerback 18.7025 3.75391 10.6473
upperback 0.0833397 7.3923 -0.353968
thorax -8.99955 3.10707 -8.26698
lowerneck -21.2272 -0.888681 2.19836
upperneck 39.0248 0.657665 -10.9049
head 18.325 -2.17472 -5.83525
rclavicle 8.90555e-014 1.04362e-014
rhumerus 34.5614 -37.652 -86.4743
rradius 4.19896
rwrist 15.807
rhand -4.82156 -19.1108
rfingers 7.12502
rthumb 20.9649 -47.9978
lclavicle 8.90555e-014 1.04362e-014
lhumerus -1113.37 -37.5943 1106.98
lradius 22.2481
lwrist 30.1307
lhand 46.7873 39.9753
lfingers 7.12502
lthumb 67.7213 401.85
rfemur 16.0495 7.18899 23.2741
rtibia 21.9485
rfoot 1.64249 -9.90885
rtoes 23.0671
lfemur 24.5003 -2.22172 -29.5489
ltibia 31.114
lfoot 23.4327 -4.65379
ltoes 57.3687
1708
root 7.52812 8.9247 12.2033 82.9277 1.61825 180.798
lowerback 19.1683 3.82903 11.2678
upperback -0.152848 7.66829 -0.9989
thorax -9.299 3.16726 -9.46491
lowerneck -20.6762 -1.0553 3.15581
upperneck 39.0828 -0.0606963 -10.7897
head 18.1021 -2.30196 -6.07117
rclavicle 3.18055e-014 4.22417e-015
rhumerus 35.0035 -38.1942 -86.5692
rradius 4.1862
rwrist 16.2813
rhand -4.78827 -18.9608
rfingers 7.12502
rthumb 20.9968 -47.8442
lclavicle 3.18055e-014 4.22417e-015
lhumerus -1113.51 -39.8575 1107.68
lradius 22.3903
lwrist 30.8778
lhand 46.0999 40.1251
lfingers 7.12502
lthumb 67.2151 403.12
rfemur 15.9716 7.17045 23.4515
rtibia 21.3223
rfoot 1.81951 -10.5028
rtoes 22.5221
lfemur 25.1469 -1.94131 -29.4623
ltibia 31.5409
lfoot 23.8926 -4.6794
ltoes 57.7669
1709
root 7.54104 8.93369 12.203 82.6905 1.74883 180.88
lowerback 19.666 3.88629 11.8153
upperback -0.400236 7.92382 -1.62969
thorax -9.63625 3.21433 -10.6257
lowerneck -20.0852 -1.2094 4.17357
upperneck 39.1191 -0.760187 -10.7107
head 17.8535 -2.42554 -6.32316
rclavicle -5.08889e-014 4.5531e-014
rhumerus 35.4158 -38.7103 -86.6337
rradius 4.16789
rwrist 16.7641
rhand -4.83627 -18.7605
rfingers 7.12502
rthumb 20.9507 -47.649
lclavicle -5.08889e-014 4.5531e-014
lhumerus -1113.68 -41.9954 1108.34
lradius 22.506
lwrist 31.583
lhand 45.3443 40.3011
lfingers 7.12502
lthumb 66.6484 404.47
rfemur 15.9862 7.17178 23.618
rtibia 20.675
rfoot 2.03618 -11.0909
rtoes 21.9038
lfemur 25.7333 -1.64879 -29.3609
ltibia 31.9808
lfoot 24.2836 -4.54833
ltoes 58.1542
1710
root 7.55465 8.94166 12.2028 82.4239 1.85384 180.979
lowerback 20.1909 3.91282 12.2616
upperback -0.645198 8.13273 -2.22533
thorax -10.0098 3.23762 -11.703
lowerneck -19.4442 -1.33267 5.25987
upperneck 39.126 -1.4056 -10.6886
head 17.5769 -2.53446 -6.59448
rclavicle 6.36111e-015 -4.99446e-014
rhumerus 35.8271 -39.1285 -86.6886
rradius 4.12992
rwrist 17.3085
rhand -4.96415 -18.5768
rfingers 7.12502
rthumb 20.8279 -47.4789
lclavicle 6.36111e-015 -4.99446e-014
lhumerus -1113.94 -43.8798 1108.97
lradius 22.5693
lwrist 32.1544
lhand 44.5061 40.4862
lfingers 7.12502
lthumb 66.0082 405.89
rfemur 16.1106 7.21066 23.7797
rtibia 20.0171
rfoot 2.23792 -11.6677
rtoes 21.4275
lfemur 26.2684 -1.35161 -29.2542
ltibia 32.4311
lfoot 24.5947 -4.29394
ltoes 58.5074
1711
root 7.56832 8.94861 12.203 82.1488 1.93503 181.087
lowerback 20.7052 3.90897 12.601
upperback -0.884793 8.28457 -2.77884
thorax -10.404 3.23392 -12.6757
lowerneck -18.7492 -1.42058 6.41284
upperneck 39.095 -1.98189 -10.7307
head 17.2694 -2.6239 -6.88362
rclavicle -6.99722e-014 3.97569e-016
rhumerus 36.2635 -39.4113 -86.7523
rradius 4.05509
rwrist 17.9637
rhand -5.16443 -18.4668
rfingers 7.12502
rthumb 20.6354 -47.3898
lclavicle -6.99722e-014 3.97569e-016
lhumerus -1114.32 -45.4853 1109.63
lradius 22.5793
lwrist 32.5723
lhand 43.5677 40.6669
lfingers 7.12502
lthumb 65.2783 407.373
rfemur 16.3167 7.2952 23.9353
rtibia 19.3689
rfoot 2.42059 -12.1979
rtoes 21.0377
lfemur 26.7217 -1.05589 -29.1474
ltibia 32.8784
lfoot 24.8481 -3.96524
ltoes 58.8177
